# xmcd CD database file
#
# Track frame offsets:
#	150
#	16620
#	29715
#	42277
#	59655
#	70995
#	81655
#	96435
#	107597
#	122850
#	135990
#	151672
#	166947
#	183650
#	201250
#	218572
#	232995
#	249382
#
# Disc length: 3524 seconds
#
# Revision: 4
# Processed by: cddbd v1.4PL0 Copyright (c) Steve Scherf et al.
# Submitted via: CDex 1.40Release
#
DISCID=f80dc212
DTITLE=Olivia Newton-John - Her Greatest Hits
DYEAR=1995
DGENRE=Pop
TTITLE0=I Honestly Love You
TTITLE1=If Not For You
TTITLE2=Long Live Love
TTITLE3=The Air That I Breathe
TTITLE4=Heartbreaker
TTITLE5=Help Me Make It Through The Night
TTITLE6=Banks Of The Ohio
TTITLE7=If
TTITLE8=If We Only Have Love
TTITLE9=Loving Arms
TTITLE10=No Regrets
TTITLE11=What Is Life?
TTITLE12=If You Could Read My Mind
TTITLE13=Angel Of The Morning
TTITLE14=Country Girl
TTITLE15=Music Makes My Day
TTITLE16=Amoureuse
TTITLE17=Take Me Home Country Roads
EXTD=YEAR: 1995 ID3G: 13
EXTT0=
EXTT1=
EXTT2=
EXTT3=
EXTT4=
EXTT5=
EXTT6=
EXTT7=
EXTT8=
EXTT9=
EXTT10=
EXTT11=
EXTT12=
EXTT13=
EXTT14=
EXTT15=
EXTT16=
EXTT17=
PLAYORDER=
